<?xml version="1.0" standalone="no"?>
<!DOCTYPE svg PUBLIC "-//W3C//DTD SVG 20010904//EN"
 "http://www.w3.org/TR/2001/REC-SVG-20010904/DTD/svg10.dtd">
<svg version="1.0" xmlns="http://www.w3.org/2000/svg"
 width="186.000000pt" height="183.000000pt" viewBox="0 0 186.000000 183.000000"
 preserveAspectRatio="xMidYMid meet">
<metadata>
Created by potrace 1.16, written by Peter Selinger 2001-2019
</metadata>
<g transform="translate(0.000000,183.000000) scale(0.100000,-0.100000)"
fill="#000000" stroke="none">
<path d="M0 915 l0 -915 930 0 930 0 0 915 0 915 -930 0 -930 0 0 -915z m1234
458 c110 -64 234 -135 273 -157 l73 -41 -3 -159 -2 -159 -275 -158 c-151 -87
-277 -156 -280 -155 -3 2 -96 56 -208 120 -112 64 -205 116 -208 116 -11 0 -3
-168 9 -178 24 -19 402 -235 412 -235 6 0 99 51 208 114 178 103 200 118 217
154 49 102 189 97 229 -8 12 -33 12 -42 -4 -83 -14 -38 -25 -50 -61 -66 -36
-15 -51 -17 -81 -9 -33 9 -43 7 -88 -18 -27 -16 -133 -77 -234 -135 l-185
-106 -277 157 -278 158 -3 169 -3 169 -120 68 c-92 53 -126 68 -146 64 -14 -3
-45 1 -67 10 -32 13 -46 27 -63 62 -19 39 -20 50 -10 83 17 57 61 90 121 90
62 0 105 -34 121 -93 l11 -42 354 -203 c233 -134 360 -201 371 -198 10 4 106
57 213 119 l195 113 3 80 2 79 -162 92 c-90 51 -185 106 -213 122 l-50 28
-124 -71 c-67 -40 -124 -76 -125 -80 0 -4 25 -22 56 -39 45 -25 61 -30 75 -21
10 6 43 24 73 42 l56 31 68 -40 c56 -34 73 -40 101 -35 72 14 145 -44 145
-116 0 -77 -46 -124 -121 -122 -52 2 -86 26 -108 77 -13 28 -30 48 -54 61
l-35 18 -72 -42 -72 -42 -183 106 c-161 92 -188 104 -218 99 -71 -11 -137 49
-137 126 0 76 48 121 129 121 51 0 95 -36 114 -93 7 -23 20 -43 29 -45 8 -1
100 47 204 107 104 61 193 110 198 111 5 0 99 -53 210 -117z"/>
</g>
</svg>
